<svg id="Layer_1" data-name="Layer 1" xmlns="http://www.w3.org/2000/svg" viewBox="0 0 266.67 305.89"><defs><style>.cls-1{fill:#7510f7;}.cls-2{fill:#58556c;}.cls-10,.cls-11,.cls-12,.cls-13,.cls-2,.cls-3,.cls-4,.cls-5,.cls-6,.cls-7,.cls-8,.cls-9{fill-rule:evenodd;}.cls-3{fill:#e4ae7c;}.cls-4{fill:#d67f54;}.cls-5{fill:#20201e;}.cls-6{fill:#da9077;}.cls-7{fill:#3f2716;}.cls-8{fill:#35253d;}.cls-9{fill:#2e1e11;}.cls-10{fill:#fff;}.cls-11{fill:#67627e;}.cls-12{fill:#383546;}.cls-13{fill:#432d4c;}</style></defs><g id="Circle"><g id="Circle-Background"><ellipse id="path-1" class="cls-1" cx="133.33" cy="177.89" rx="133.33" ry="127.99"/></g></g><path class="cls-2" d="M943.47,774.54H824c-1.39-42.11,45.64-66.55,86-75.67,3.27-11.75,2.44-27,2.44-27h62.13s-.84,15.23,2.44,27c40.37,9.12,87.4,33.56,86,75.67Z" transform="translate(-811.76 -529.58)"/><path class="cls-3" d="M877.68,635.86c-.29-2.35-13.36-5.13-17.72,2.56s3.49,18.57,18.3,19.43,10.46-1.07,10.46-1.07Z" transform="translate(-811.76 -529.58)"/><path class="cls-3" d="M1009.58,635.86c.29-2.35,13.36-5.13,17.72,2.56s-3.49,18.57-18.3,19.43-10.46-1.07-10.46-1.07Z" transform="translate(-811.76 -529.58)"/><path class="cls-4" d="M974.92,688c-13.45,18.91-48.09,20.88-63,.72.39-4.12.51-8,.54-11h62C974.47,680.56,974.58,684.16,974.92,688Z" transform="translate(-811.76 -529.58)"/><path class="cls-3" d="M943.47,687.62c-77.07,1.37-116-138.34,0-134.76C1059.46,549.28,1020.54,689,943.47,687.62Z" transform="translate(-811.76 -529.58)"/><path class="cls-5" d="M917.58,622.78c3.09,1.64,3.79,4.81,1.55,7.08s-6.56,2.78-9.65,1.14-3.79-4.81-1.56-7.08S914.48,621.14,917.58,622.78Z" transform="translate(-811.76 -529.58)"/><path class="cls-5" d="M969.8,622.78c-3.1,1.64-3.79,4.81-1.56,7.08s6.56,2.78,9.66,1.14,3.79-4.81,1.55-7.08S972.89,621.14,969.8,622.78Z" transform="translate(-811.76 -529.58)"/><path class="cls-6" d="M909.06,641.2c3.94,2.22,4.11,5.47.39,7.26s-9.93,1.44-13.86-.78-4.11-5.47-.39-7.26S905.13,639,909.06,641.2Z" transform="translate(-811.76 -529.58)"/><path class="cls-6" d="M978.31,641.2c-3.93,2.22-4.11,5.47-.38,7.26s9.92,1.44,13.86-.78,4.1-5.47.38-7.26S982.24,639,978.31,641.2Z" transform="translate(-811.76 -529.58)"/><path class="cls-7" d="M920.59,609l-.77-.23a26.65,26.65,0,0,0-8.82-.84,24.87,24.87,0,0,0-8.24,1.9c-1.24.59-6.11,3.48-4.73,4.55.56.11,5.41-1.71,6.83-2a25.77,25.77,0,0,1,6.36-.62,22.19,22.19,0,0,1,5.83.87,4.39,4.39,0,0,1,.49.15c4.07,1.45,3.7,2.38,6.47,1C928.28,612.05,923.89,610.26,920.59,609Z" transform="translate(-811.76 -529.58)"/><path class="cls-7" d="M966.35,609l.77-.23a26.71,26.71,0,0,1,8.83-.84,24.87,24.87,0,0,1,8.23,1.9c1.25.59,6.11,3.48,4.73,4.55-.56.11-5.41-1.71-6.83-2a25.77,25.77,0,0,0-6.36-.62,22.26,22.26,0,0,0-5.83.87,4.39,4.39,0,0,0-.49.15c-4.06,1.45-3.69,2.38-6.47,1C958.66,612.05,963.06,610.26,966.35,609Z" transform="translate(-811.76 -529.58)"/><path class="cls-4" d="M939.85,669.05c-.4-.17-.53-.54-.3-.83a1,1,0,0,1,1.14-.22,10.71,10.71,0,0,0,4.08.74,10.16,10.16,0,0,0,4-.74,1,1,0,0,1,1.14.21c.24.29.12.66-.28.84a12.31,12.31,0,0,1-4.86.92A12.76,12.76,0,0,1,939.85,669.05Z" transform="translate(-811.76 -529.58)"/><path class="cls-4" d="M942.84,646.82c-.46,0-.83-.27-.83-.61s.37-.61.83-.61a55.24,55.24,0,0,0,6.25-.25c1.53-.19,2.64-.49,2.64-1,0-1.77-2.43-12.75-2.44-12.78-.07-.34.24-.65.7-.7a.83.83,0,0,1,1,.51s2.47,11.13,2.47,13c0,1.29-1.72,1.92-4,2.21A56.5,56.5,0,0,1,942.84,646.82Z" transform="translate(-811.76 -529.58)"/><path class="cls-4" d="M1022.56,644.49c0,.33-.38.61-.84.61s-.83-.28-.83-.61c0-1.87-.44-3-1.15-3.68a2.32,2.32,0,0,0-1.55-.57,5.87,5.87,0,0,0-2.28.52,12.79,12.79,0,0,0-5.71,5,19.39,19.39,0,0,0-1.43,2.85,7.6,7.6,0,0,1,3.89-.83,4.51,4.51,0,0,1,1.8.48,2.35,2.35,0,0,1,1.13,1.16c.34.84.08,2-1.15,3.32a1,1,0,0,1-1.16.17.52.52,0,0,1-.23-.85c.92-1,1.15-1.78.94-2.29a1,1,0,0,0-.5-.52,2.71,2.71,0,0,0-1-.25,5.57,5.57,0,0,0-3.56,1.1,1.88,1.88,0,0,1-.85.39c-.67.11-1.06-.11-1.21-.59v0a1.5,1.5,0,0,1,0-.72,16,16,0,0,1,1.77-3.88,14.36,14.36,0,0,1,6.42-5.53,8,8,0,0,1,3.13-.67,4.18,4.18,0,0,1,2.82,1C1022,640.89,1022.56,642.32,1022.56,644.49Z" transform="translate(-811.76 -529.58)"/><path class="cls-4" d="M866.06,644.49c0,.33-.38.61-.84.61s-.83-.28-.83-.61c0-2.17.58-3.6,1.52-4.45a4.17,4.17,0,0,1,2.81-1,7.88,7.88,0,0,1,3.13.67,14.36,14.36,0,0,1,6.42,5.53,16.06,16.06,0,0,1,1.78,3.88,1.62,1.62,0,0,1,0,.72v0c-.15.48-.54.7-1.21.59a1.85,1.85,0,0,1-.84-.39,5.6,5.6,0,0,0-3.57-1.1,2.71,2.71,0,0,0-1,.25,1.09,1.09,0,0,0-.5.52c-.2.51,0,1.28.94,2.29a.52.52,0,0,1-.23.85,1,1,0,0,1-1.15-.17c-1.23-1.35-1.5-2.48-1.15-3.32a2.29,2.29,0,0,1,1.12-1.16,4.51,4.51,0,0,1,1.8-.48,7.6,7.6,0,0,1,3.89.83,20.27,20.27,0,0,0-1.42-2.85,12.87,12.87,0,0,0-5.72-5,5.83,5.83,0,0,0-2.28-.52,2.32,2.32,0,0,0-1.55.57C866.5,641.45,866.06,642.62,866.06,644.49Z" transform="translate(-811.76 -529.58)"/><path class="cls-8" d="M1028.76,561.15c3.21.45,2.79,2.39-6.58,7.25,8.66,8,10,20.76,7,32.71-.63,2.55-10.4,20.64-19.6,32.49-.86,1.1-.29-23.5-10-33.32-4.91-5-8.95-10.89-18.94-15.82-.1,1.4,5.83,5.22,3.62,6-8.47,2.93-32.33-.1-43.34-2.15,3.17,2.4,6.4,4.14,5.19,5-3.8,2.74-27.78-1.53-42.59-8.84-3.59,8.71-8.66,17.95-14.36,20.41-15.24,6.6-8.59,34.43-12.59,30.34-18.35-18.76-13.73-43.05-13.73-43.05-1.77,2.07-3.8,3.86-5.2,6-2.53,3.87-4.26-31.74,18.76-36.35,0,0-3.63-.93-13,.36-3.43.47,6.74-6.47,17.71-7.38.31-3.5,2.44-17.58,16.44-22.12,6.5-2.1,17.14-3.53,15.79-2.93-6.68,3-8.6,7.1-8.6,7.1,51.24-17.76,74.54,1.12,94.62,13C1005.54,553.39,1018.4,560.55,1028.76,561.15Z" transform="translate(-811.76 -529.58)"/><path class="cls-9" d="M911.79,611a29.65,29.65,0,0,1,17.47,5.32c4.47,3.28,7.23,7.82,7.23,12.83s-2.76,9.56-7.23,12.84a31.33,31.33,0,0,1-34.93,0c-4.47-3.28-7.24-7.82-7.24-12.84s2.77-9.55,7.24-12.83A29.62,29.62,0,0,1,911.79,611Zm14.51,7.49a26,26,0,0,0-29,0c-3.71,2.73-6,6.5-6,10.66s2.3,7.94,6,10.67a26,26,0,0,0,29,0c3.72-2.73,6-6.5,6-10.67S930,621.26,926.3,618.53Z" transform="translate(-811.76 -529.58)"/><path class="cls-9" d="M975.15,611a29.65,29.65,0,0,1,17.47,5.32c4.47,3.28,7.23,7.82,7.23,12.83s-2.76,9.56-7.23,12.84a31.34,31.34,0,0,1-34.94,0c-4.47-3.28-7.23-7.82-7.23-12.84s2.76-9.55,7.23-12.83A29.65,29.65,0,0,1,975.15,611Zm14.51,7.49a26,26,0,0,0-29,0c-3.72,2.73-6,6.5-6,10.66s2.29,7.94,6,10.67a26,26,0,0,0,29,0c3.71-2.73,6-6.5,6-10.67S993.37,621.26,989.66,618.53Z" transform="translate(-811.76 -529.58)"/><path class="cls-9" d="M888.44,627.71a1.87,1.87,0,0,1,2.13.74c.31.63-.14,1.33-1,1.56l-14.72,3.9a1.87,1.87,0,0,1-2.12-.74c-.31-.64.14-1.34,1-1.57Z" transform="translate(-811.76 -529.58)"/><path class="cls-9" d="M997.44,630c-.86-.23-1.31-.93-1-1.56a1.88,1.88,0,0,1,2.13-.74l14.71,3.89c.87.23,1.32.93,1,1.57a1.88,1.88,0,0,1-2.13.74Z" transform="translate(-811.76 -529.58)"/><path class="cls-9" d="M934.77,627.78a2,2,0,0,1-2.29.41c-.79-.35-1-1.11-.56-1.68,0,0,2.83-3.54,11.55-3.54S955,626.5,955,626.51a1.06,1.06,0,0,1-.55,1.68,2,2,0,0,1-2.29-.41s-1.88-2.35-8.71-2.35S934.77,627.77,934.77,627.78Z" transform="translate(-811.76 -529.58)"/><path class="cls-10" d="M969.61,652.64c-10.49,2.86-42.38,2.81-52.28.35C922.8,667.64,964.29,667.41,969.61,652.64Z" transform="translate(-811.76 -529.58)"/><path class="cls-11" d="M911.29,685.43c-.85-.27-3-.24-3,.89s1.56,5.46.44,8.58c-1.18,3.29-3.16,6-.88,6.65a135,135,0,0,0,71.25,0c2.29-.65.3-3.36-.88-6.65-1.12-3.12.44-7.35.45-8.58s-2.19-1.16-3-.89A108.74,108.74,0,0,1,911.29,685.43Z" transform="translate(-811.76 -529.58)"/><path class="cls-12" d="M856.31,756c0-.51.57-.92,1.26-.92s1.24.42,1.24.93l-.31,25.42c0,.51-.57.91-1.26.91s-1.24-.42-1.24-.92Z" transform="translate(-811.76 -529.58)"/><path class="cls-12" d="M1028.44,756c0-.51.57-.92,1.26-.92s1.24.42,1.24.93l-.31,25.42c0,.51-.57.91-1.26.91s-1.24-.42-1.24-.92Z" transform="translate(-811.76 -529.58)"/><path class="cls-2" d="M913.93,688.31c0-.34.4-.61.85-.6s.83.3.81.63c0,.84-.05,1.63-.06,2.42,0,1.62,0,3.27-.27,5.21a11.85,11.85,0,0,1-2.6,5.64,1,1,0,0,1-1.15.19.53.53,0,0,1-.25-.85,10.57,10.57,0,0,0,2.33-5.08,48.85,48.85,0,0,0,.28-5.12C913.88,689.93,913.89,689.13,913.93,688.31Z" transform="translate(-811.76 -529.58)"/><path class="cls-2" d="M920.78,690.09c0-.33.4-.6.86-.59s.82.29.8.63c0,.84,0,1.62-.06,2.42a49.45,49.45,0,0,1-.27,5.21,11.81,11.81,0,0,1-2.6,5.64,1,1,0,0,1-1.15.19c-.38-.19-.5-.56-.25-.85a10.7,10.7,0,0,0,2.34-5.08c.22-2,.24-3.55.27-5.12C920.73,691.72,920.74,690.91,920.78,690.09Z" transform="translate(-811.76 -529.58)"/><path class="cls-2" d="M928,691.07c0-.34.39-.6.85-.59s.82.29.81.63c0,.83,0,1.62-.06,2.41,0,1.62-.05,3.27-.27,5.21a11.79,11.79,0,0,1-2.6,5.64,1,1,0,0,1-1.15.19.52.52,0,0,1-.25-.84,10.69,10.69,0,0,0,2.33-5.09,48.63,48.63,0,0,0,.27-5.12C927.92,692.7,927.93,691.89,928,691.07Z" transform="translate(-811.76 -529.58)"/><path class="cls-2" d="M935.37,692a.78.78,0,0,1,.86-.59c.46,0,.82.29.81.63,0,.84,0,1.62-.07,2.42a49.45,49.45,0,0,1-.27,5.21,11.71,11.71,0,0,1-2.6,5.64,1,1,0,0,1-1.15.19c-.38-.19-.5-.56-.25-.85a10.5,10.5,0,0,0,2.34-5.08,48.77,48.77,0,0,0,.27-5.12C935.32,693.67,935.34,692.86,935.37,692Z" transform="translate(-811.76 -529.58)"/><path class="cls-2" d="M970.49,688.34c0-.33.34-.62.8-.63s.85.26.86.6c0,.82.05,1.62.06,2.44,0,1.57,0,3.17.27,5.12a10.64,10.64,0,0,0,2.34,5.08.53.53,0,0,1-.25.85,1,1,0,0,1-1.15-.19,11.75,11.75,0,0,1-2.6-5.64,49.45,49.45,0,0,1-.27-5.21C970.54,690,970.52,689.18,970.49,688.34Z" transform="translate(-811.76 -529.58)"/><path class="cls-2" d="M963.63,690.13c0-.34.35-.62.81-.63a.78.78,0,0,1,.86.59c0,.82.05,1.63.06,2.45a48.77,48.77,0,0,0,.27,5.12,10.5,10.5,0,0,0,2.34,5.08c.25.29.13.66-.26.85a1,1,0,0,1-1.14-.19,11.78,11.78,0,0,1-2.61-5.64,49.27,49.27,0,0,1-.26-5.21C963.68,691.75,963.67,691,963.63,690.13Z" transform="translate(-811.76 -529.58)"/><path class="cls-2" d="M956.45,691.11c0-.34.34-.62.8-.63s.85.25.86.59c0,.82,0,1.63.06,2.44,0,1.57.05,3.17.27,5.12a10.76,10.76,0,0,0,2.34,5.09.52.52,0,0,1-.25.84,1,1,0,0,1-1.15-.19,11.69,11.69,0,0,1-2.6-5.64c-.22-1.94-.24-3.59-.27-5.21C956.5,692.73,956.48,691.94,956.45,691.11Z" transform="translate(-811.76 -529.58)"/><path class="cls-2" d="M949,692.08c0-.34.35-.62.81-.63a.78.78,0,0,1,.86.59c0,.82,0,1.63.06,2.45a48.77,48.77,0,0,0,.27,5.12,10.5,10.5,0,0,0,2.34,5.08.53.53,0,0,1-.26.85,1,1,0,0,1-1.15-.19,11.91,11.91,0,0,1-2.6-5.64c-.22-1.94-.24-3.59-.27-5.21C949.09,693.7,949.08,692.92,949,692.08Z" transform="translate(-811.76 -529.58)"/><path class="cls-2" d="M942.3,692.06c0-.34.37-.61.83-.61s.83.27.83.61l0,13c0,.34-.37.61-.83.61s-.83-.27-.83-.61Z" transform="translate(-811.76 -529.58)"/><path class="cls-13" d="M897.83,559.75c-.22-.3-.07-.67.34-.83a1,1,0,0,1,1.13.24c4.59,6.26,14.13,11.77,25.12,16.15a169.11,169.11,0,0,0,41.91,10.51c.46,0,.78.36.71.69a.83.83,0,0,1-.94.53,171.47,171.47,0,0,1-42.48-10.65C912.37,571.91,902.59,566.24,897.83,559.75Z" transform="translate(-811.76 -529.58)"/><path class="cls-13" d="M907.19,554.38c-.47,0-.84-.27-.84-.61s.37-.62.84-.62a158,158,0,0,1,72.66,17.75c10.55,5.48,19.07,11.67,25.21,19.17a48.44,48.44,0,0,1,10.85,27c0,.34-.32.64-.78.66s-.86-.24-.89-.57a47.43,47.43,0,0,0-10.61-26.49c-6-7.34-14.37-13.41-24.74-18.8a155.79,155.79,0,0,0-71.7-17.52Z" transform="translate(-811.76 -529.58)"/><path class="cls-13" d="M913.28,548.8a1,1,0,0,1-1.1-.3c-.2-.31,0-.67.4-.81,34.28-11.61,56.59-.06,75.84,9.9,4.75,2.46,9.32,4.82,13.8,6.7a.54.54,0,0,1,.32.83,1,1,0,0,1-1.14.23c-4.57-1.9-9.16-4.28-13.94-6.76C968.58,548.82,946.68,537.49,913.28,548.8Z" transform="translate(-811.76 -529.58)"/><path class="cls-13" d="M891,570.05c0-.34.33-.63.79-.64s.85.24.87.58c.24,3.29-1,8-3.23,12.6a40.66,40.66,0,0,1-8.43,12,20.32,20.32,0,0,0-6.55,13.44c0,.34-.38.61-.84.61s-.83-.29-.82-.63a21.43,21.43,0,0,1,6.9-14.18,39.77,39.77,0,0,0,8.17-11.66C890,577.7,891.19,573.19,891,570.05Z" transform="translate(-811.76 -529.58)"/></svg>